<svg xmlns="http://www.w3.org/2000/svg" width="1024" height="1024" viewBox="0 0 1024 1024">
  <!-- Ember glow (P2-AppIcon, C3): charcoal with the marigold glow from the top right, as
       radial-gradient(90% 90% at 85% 10%, rgba(255,171,56,.55), transparent 70%). -->
  <defs>
    <radialGradient id="glow" cx="870.4" cy="102.4" r="921.6" gradientUnits="userSpaceOnUse">
      <stop offset="0" stop-color="#FFAB38" stop-opacity="0.55"/>
      <stop offset="0.7" stop-color="#FFAB38" stop-opacity="0"/>
    </radialGradient>
  </defs>
  <rect width="1024" height="1024" fill="#131110"/>
  <rect width="1024" height="1024" fill="url(#glow)"/>
  <!-- Lucide book-open (ISC), 56% of the icon, centred. -->
  <g transform="translate(225.28 225.28) scale(23.893)" fill="none" stroke="#FFAB38" stroke-width="2" stroke-linecap="round" stroke-linejoin="round">
    <path d="M12 5v16"/>
    <path d="M20.001 19A2 2 0 0022 17V5a2 2 0 00-1.999-2L16 3.002A5 5 0 0012 5a5 5 0 00-4-2H4a2 2 0 00-2 2v12a2 2 0 001.999 2H8a5 5 0 014 2 5 5 0 014-2z"/>
  </g>
</svg>
